<svg xmlns="http://www.w3.org/2000/svg" version="1.1" xmlns:xlink="http://www.w3.org/1999/xlink" xmlns:svgjs="http://svgjs.dev/svgjs" width="100%" height="100%" viewBox="0 0 1000 600"><rect width="1000" height="600" x="0" y="0" fill="#ffffff"/><g><circle r="166.66666666666666" cx="425.9837443033854" cy="448.20604779444136" fill="#808080" transform="matrix(0.4820351675409569,0,0,0.4820351675409569,0,83.94891121444454)"/><path d="M360.1986362711492 514.897009730269Q365.3839756636178 513.9911371858018 368.9762288571954 512.8666057512905Q372.568482050773 511.7420743167792 376.1607352443506 509.02445668337697L376.1607352443506 509.02445668337697L418.23695308564663 373.2060489818512L431.7313302997817 373.2060489818512L478.05577800478693 509.2743525577128Q483.6784351773432 513.3039235313781 492.89334554347704 514.897009730269L492.89334554347704 514.897009730269L491.98747299900964 523.2060475519356L435.760901273447 523.2060475519356L436.8854327079583 514.897009730269Q449.94249214200556 513.3039235313781 457.5955532935405 508.80579779333317L457.5955532935405 508.80579779333317L446.1315800583841 474.8511958679517L400.6817679135543 474.8511958679517L390.3423261129092 508.80579779333317Q397.77672837440025 513.0852646413343 412.1457411487107 514.897009730269L412.1457411487107 514.897009730269L411.2711055885353 523.2060475519356L359.07410483663796 523.2060475519356L360.1986362711492 514.897009730269ZM404.27402110713194 463.1685637427515L442.2894309904707 463.1685637427515L422.5164199336478 404.44303327383045L404.27402110713194 463.1685637427515Z " fill="#7a2a2a" transform="matrix(0.4820351675409569,0,0,0.4820351675409569,0,83.94891121444454)"/><path d="M677.0492284635887 513.8532457140163Q681.9624091759134 512.9949189630679 685.366118705536 511.9294098929252Q688.7698282351585 510.86390082278257 692.173537764781 508.28892056993766L692.173537764781 508.28892056993766L732.0413354726207 379.59910287603503L744.8274443143332 379.59910287603503L788.7204985093787 508.52570036330275Q794.0480438600922 512.343774531314 802.7792987404283 513.8532457140163L802.7792987404283 513.8532457140163L801.92097198948 521.726173843404L748.6455184823446 521.726173843404L749.7110275524873 513.8532457140163Q762.0827717558109 512.343774531314 769.3341529276155 508.0817382507433L769.3341529276155 508.0817382507433L758.471879906994 475.9092838272676L715.4075549887261 475.9092838272676L705.6107910382475 508.0817382507433Q712.6549898908576 512.1365922121197 726.2698280093477 513.8532457140163L726.2698280093477 513.8532457140163L725.44109873257 521.726173843404L675.983719393446 521.726173843404L677.0492284635887 513.8532457140163ZM718.8112645183487 464.8398284874517L754.8313905840064 464.8398284874517L736.0961894339971 409.1965770466658L718.8112645183487 464.8398284874517ZM810.6818243439867 514.0604280332107Q815.5654075821408 513.2021012822624 818.5547524733745 512.1365922121197Q821.5440973646082 511.07108314197694 824.7406245750363 508.52570036330275L824.7406245750363 508.52570036330275L824.7406245750363 447.79168336516835Q824.7406245750363 439.88915776160997 821.4257074679257 437.01820276705877Q818.1403878349856 434.14724777250757 809.8234975930384 433.7032856599481L809.8234975930384 433.7032856599481L810.4450445506217 427.5470110324569Q817.074878764843 426.2447221689492 829.417025493996 422.4266480009378L829.417025493996 422.4266480009378L836.4612243466061 420.29562986065235L840.2792985146175 422.2194656817434L842.4103166549029 437.1365926637413Q847.3234973672276 429.6780291727423 853.9237341072783 424.97203077961206Q860.523970847329 420.29562986065235 867.9825343383279 420.29562986065235L867.9825343383279 420.29562986065235Q875.6778776226919 420.29562986065235 881.3013977151116 424.7648484604176Q886.9545152817021 429.23406706018284 886.9545152817021 437.5509573021301L886.9545152817021 437.5509573021301Q886.9545152817021 442.8785026528437 883.8763779679566 446.93335661422003Q880.7686431800404 450.9882105755965 875.6778776226919 450.9882105755965L875.6778776226919 450.9882105755965Q872.0373882997043 450.9882105755965 868.8408610892762 449.15316717701734Q865.644333878848 447.3477212526089 864.7860071278998 444.3583763613752L864.7860071278998 444.3583763613752Q865.644333878848 443.5296470845975 866.2954783106019 441.6946036860184Q866.9170252681852 439.88915776160997 866.9170252681852 438.4092840530784L866.9170252681852 438.4092840530784Q866.9170252681852 432.0162296322222 860.9679329598883 432.0162296322222L860.9679329598883 432.0162296322222Q857.1202613177064 432.0162296322222 852.8582250371355 436.0710835935986Q848.5961887565647 440.0963400808044 845.7252337620135 446.4006020791487Q842.8542787674623 452.6752666033224 842.8542787674623 459.06832102417866L842.8542787674623 459.06832102417866L842.8542787674623 508.52570036330275Q848.5961887565647 512.343774531314 859.6952415705513 514.4747926715995L859.6952415705513 514.4747926715995L858.836914819603 521.726173843404L809.8234975930384 521.726173843404L810.6818243439867 514.0604280332107ZM895.0642232044551 514.0604280332107Q899.9478064426091 513.2021012822624 902.9371513338428 512.1365922121197Q905.9264962250766 511.07108314197694 909.1230234355047 508.7328826824971L909.1230234355047 508.7328826824971L909.1230234355047 447.3477212526089Q909.1230234355047 439.4747931232211 905.808106328394 436.6038381286699Q902.522786695454 433.7032856599481 894.2058964535067 433.28892102155925L894.2058964535067 433.28892102155925L894.8570408852606 427.10304891989745Q903.3811134464023 425.6231752113659 912.4379405426153 422.8410126393266Q921.4947676388283 420.0884475414579 922.9746413473598 419.64448542889846L922.9746413473598 419.64448542889846L927.2366776279307 421.9826858883783L927.2366776279307 508.7328826824971Q932.5642229786442 512.5509568505086 942.1538046099287 514.4747926715995L942.1538046099287 514.4747926715995L941.2954778589802 521.726173843404L894.2058964535067 521.726173843404L895.0642232044551 514.0604280332107ZM915.7232601755553 403.8690316959523Q904.6538048357394 403.8690316959523 904.6538048357394 391.52688496679923L904.6538048357394 391.52688496679923Q904.6538048357394 379.1551407634756 915.7232601755553 379.1551407634756L915.7232601755553 379.1551407634756Q921.2579878454633 379.1551407634756 924.1585403141851 382.3516679739037Q927.0294953087363 385.5481951843318 927.0294953087363 391.52688496679923L927.0294953087363 391.52688496679923Q927.0294953087363 397.47597727509606 924.1585403141851 400.6725044855242Q921.2579878454633 403.8690316959523 915.7232601755553 403.8690316959523L915.7232601755553 403.8690316959523ZM985.8396764857797 522.9988652327411Q978.3811129947807 522.9988652327411 968.6731414668137 520.5422748765789Q958.9947674130175 518.1152819945871 954.0815867006928 514.9187547841589L954.0815867006928 514.9187547841589L954.0815867006928 488.6953926689801L965.3878218338738 487.21551896044855Q966.246148584822 496.15395615997903 967.4004500774766 501.36311161401005Q968.5843490443019 506.6018645422117 971.1297318229762 511.2782654611714L971.1297318229762 511.2782654611714Q977.9667483563918 513.4092836014568 987.5563299876762 513.4092836014568L987.5563299876762 513.4092836014568Q996.2875848680123 513.4092836014568 1001.8223125379203 508.7328826824971Q1007.3570402078282 504.0268842893668 1007.3570402078282 497.01228291092735L1007.3570402078282 497.01228291092735Q1007.3570402078282 489.9680840583172 1001.9407024346027 486.44598463201214Q996.4947671872068 482.9534826798777 984.774167415637 478.8986287185013L984.774167415637 478.8986287185013Q974.9774034651581 475.4949191888788 968.9099212601789 472.29839197845064Q962.8128415810289 469.1018647680225 958.5508053004581 463.12317498555507Q954.2887690198871 457.1444852030877 954.2887690198871 447.79168336516835L954.2887690198871 447.79168336516835Q954.2887690198871 435.00557452345583 963.7895582286598 427.75419335165134Q973.2607499632616 420.5028121798468 989.894530447156 420.5028121798468L989.894530447156 420.5028121798468Q998.8329676466866 420.5028121798468 1006.409921034368 423.28497475188607Q1013.9572769478789 426.03753984975475 1018.4560930218148 430.8323306653969Q1022.92531162158 435.6271214810391 1022.92531162158 441.3986289443121L1022.92531162158 441.3986289443121Q1022.92531162158 452.468084284128 1013.1285476711013 452.468084284128L1013.1285476711013 452.468084284128Q1009.0736937097248 452.468084284128 1006.409921034368 451.07700299810836Q1003.7461483590113 449.6859217120887 1001.6151302187259 446.72617429502566L1001.6151302187259 446.72617429502566Q1005.2260220675429 444.15119404218075 1005.2260220675429 439.03083101066164L1005.2260220675429 439.03083101066164Q1005.2260220675429 434.5616124108964 1000.4312312519006 431.80904731302775Q995.6364404362583 429.02688474098846 988.6218390578189 429.02688474098846L988.6218390578189 429.02688474098846Q980.0977664966773 429.02688474098846 975.1845857843525 432.87455638317044Q970.2714050720278 436.6926305511818 970.2714050720278 443.2928672912325L970.2714050720278 443.2928672912325Q970.2714050720278 448.620412641946 973.5863221791385 452.14251206825105Q976.901239286249 455.66461149455614 981.5776402052088 457.79562963484153Q986.2540411241685 459.926647775127 995.0148934786752 462.9159926663607L995.0148934786752 462.9159926663607Q1004.1605129974001 466.3197021959832 1010.0208128831849 469.51622940641136Q1015.8811127689698 472.7127566168395 1019.9359667303463 478.3658741834299Q1023.9908206917227 484.0189917500204 1023.9908206917227 492.7502466303565L1023.9908206917227 492.7502466303565Q1023.9908206917227 507.01622918060053 1013.9572769478789 515.0075472066708Q1003.9533306782056 522.9988652327411 985.8396764857797 522.9988652327411L985.8396764857797 522.9988652327411ZM1063.6218386061973 523.2060475519356Q1050.4213651260961 523.2060475519356 1043.1699839542916 516.8129931310793Q1035.918602782487 510.4199387102231 1035.918602782487 498.9361187320183L1035.918602782487 498.9361187320183Q1035.918602782487 485.0845008201631 1046.1593288455251 477.0931827940928Q1056.3704574343928 469.1018647680225 1075.756803016156 467.79957590451477L1075.756803016156 467.79957590451477L1093.248910250999 466.52688451517764L1093.248910250999 449.2715570736999Q1093.248910250999 438.61646637227284 1088.7796916512334 433.7032856599481Q1084.2808755772976 428.81970242179403 1074.2769293076244 428.81970242179403L1074.2769293076244 428.81970242179403Q1065.7528567464828 428.81970242179403 1061.165248250035 431.3650852004683Q1056.5776397535874 433.94006545331314 1056.5776397535874 438.4092840530784L1056.5776397535874 438.4092840530784Q1056.5776397535874 443.9440117229863 1062.9706941744435 446.2822121824662L1062.9706941744435 446.2822121824662Q1062.9706941744435 451.1953928947909 1059.8925568606978 453.8591655701477Q1056.8144195469522 456.52293824550446 1050.8357297644848 456.52293824550446L1050.8357297644848 456.52293824550446Q1045.3010020945767 456.52293824550446 1041.8972925649543 453.1192287158819Q1038.4639855611613 449.6859217120887 1038.4639855611613 444.15119404218075L1038.4639855611613 444.15119404218075Q1038.4639855611613 433.28892102155925 1048.1719570891282 426.7774767040205Q1057.8799286170947 420.29562986065235 1074.2769293076244 420.29562986065235L1074.2769293076244 420.29562986065235Q1091.7394390682966 420.29562986065235 1101.565800492946 427.9613756708457Q1111.3625644434246 435.6271214810391 1111.3625644434246 449.2715570736999L1111.3625644434246 449.2715570736999L1111.3625644434246 508.7328826824971Q1113.2864002645156 510.2127563910287 1117.5484365450866 511.9294098929252Q1121.8104728256574 513.6164659206512 1126.2796914254227 514.4747926715995L1126.2796914254227 514.4747926715995L1125.4213646744743 521.726173843404L1096.0014753488672 521.726173843404L1093.870457208582 512.1365922121197Q1087.2702204685313 518.3224643137814 1080.0188392967268 520.7790546699439Q1072.7970555990928 523.2060475519356 1063.6218386061973 523.2060475519356L1063.6218386061973 523.2060475519356ZM1068.9493839569109 514.4747926715995Q1074.9280737393783 514.4747926715995 1080.6699837284805 511.6038376770483Q1086.411893717583 508.7328826824971 1093.248910250999 502.13264594244646L1093.248910250999 502.13264594244646L1093.248910250999 475.2581393955137L1076.2007651287154 476.76761057821585Q1066.1672213848715 477.6259373291642 1060.4253113957693 483.0422751023896Q1054.6834014066667 488.4882103497857 1054.6834014066667 497.01228291092735L1054.6834014066667 497.01228291092735Q1054.6834014066667 514.4747926715995 1068.9493839569109 514.4747926715995L1068.9493839569109 514.4747926715995ZM1237.506999358653 523.2060475519356Q1209.5965812157483 523.2060475519356 1196.2777178389647 505.53635547206903Q1182.9588544621806 487.8370659180318 1182.9588544621806 450.54424846303704L1182.9588544621806 450.54424846303704Q1182.9588544621806 413.45861332723666 1196.4849001581588 395.5817389281757Q1210.0109458541372 377.675267054944 1238.158143790407 377.675267054944L1238.158143790407 377.675267054944Q1250.2931082003656 377.675267054944 1260.0010797283326 381.286158903761Q1269.6794537821288 384.9266482267486 1275.1253890295247 391.3197026476048Q1280.571324276921 397.7127570684611 1280.571324276921 405.79286751704325L1280.571324276921 405.79286751704325Q1280.571324276921 412.8370663696534 1276.9308349539333 417.7206496078075Q1273.3199431051162 422.6338303201322 1268.1995800735972 422.6338303201322L1268.1995800735972 422.6338303201322Q1263.9375437930264 422.6338303201322 1260.533834263404 420.29562986065235Q1257.1301247337813 417.95742940117253 1255.8278358702737 414.3169400781849L1255.8278358702737 414.3169400781849Q1259.88268983165 408.782212408277 1259.88268983165 403.66184937675786L1259.88268983165 403.66184937675786Q1259.88268983165 397.0616126367072 1253.9335975233532 393.1251485720133Q1247.9549077408858 389.1886845073194 1238.158143790407 389.1886845073194L1238.158143790407 389.1886845073194Q1220.9028163489293 389.1886845073194 1212.585926106982 404.1946039118292Q1204.2690358650348 419.23012079050966 1204.2690358650348 450.54424846303704L1204.2690358650348 450.54424846303704Q1204.2690358650348 481.44401149717555 1212.4675362102994 495.9467738407846Q1220.6660365555642 510.4199387102231 1238.158143790407 510.4199387102231L1238.158143790407 510.4199387102231Q1249.2275991302229 510.4199387102231 1259.793897409138 505.2107832561921Q1270.3305982138827 500.001627802161 1275.6581435645962 492.9574289495509L1275.6581435645962 492.9574289495509L1283.1167070555953 501.0671368723037Q1276.5164703155447 509.1472473208859 1264.7958705439746 516.1914461734962Q1253.075270772405 523.2060475519356 1237.506999358653 523.2060475519356L1237.506999358653 523.2060475519356ZM1321.2678512615385 523.2060475519356Q1308.037780307266 523.2060475519356 1300.8159966096323 516.8129931310793Q1293.5646154378278 510.4199387102231 1293.5646154378278 498.9361187320183L1293.5646154378278 498.9361187320183Q1293.5646154378278 485.0845008201631 1303.7757440266955 477.0931827940928Q1314.0164700897335 469.1018647680225 1333.4028156714967 467.79957590451477L1333.4028156714967 467.79957590451477L1350.8949229063396 466.52688451517764L1350.8949229063396 449.2715570736999Q1350.8949229063396 438.61646637227284 1346.3961068324038 433.7032856599481Q1341.9268882326382 428.81970242179403 1331.9229419629655 428.81970242179403L1331.9229419629655 428.81970242179403Q1323.3988694018235 428.81970242179403 1318.811260905376 431.3650852004683Q1314.223652408928 433.94006545331314 1314.223652408928 438.4092840530784L1314.223652408928 438.4092840530784Q1314.223652408928 443.9440117229863 1320.616706829784 446.2822121824662L1320.616706829784 446.2822121824662Q1320.616706829784 451.1953928947909 1317.538569516039 453.8591655701477Q1314.4308347281226 456.52293824550446 1308.4817424198259 456.52293824550446L1308.4817424198259 456.52293824550446Q1302.9470147499178 456.52293824550446 1299.5137077461245 453.1192287158819Q1296.109998216502 449.6859217120887 1296.109998216502 444.15119404218075L1296.109998216502 444.15119404218075Q1296.109998216502 433.28892102155925 1305.8179697444689 426.7774767040205Q1315.4963437982651 420.29562986065235 1331.9229419629655 420.29562986065235L1331.9229419629655 420.29562986065235Q1349.3854517236373 420.29562986065235 1359.1822156741164 427.9613756708457Q1369.0085770987657 435.6271214810391 1369.0085770987657 449.2715570736999L1369.0085770987657 449.2715570736999L1369.0085770987657 508.7328826824971Q1370.902815445686 510.2127563910287 1375.164851726257 511.9294098929252Q1379.4268880068275 513.6164659206512 1383.9257040807634 514.4747926715995L1383.9257040807634 514.4747926715995L1383.0673773298154 521.726173843404L1353.6474880042083 521.726173843404L1351.5164698639228 512.1365922121197Q1344.9162331238722 518.3224643137814 1337.6648519520677 520.7790546699439Q1330.4134707802632 523.2060475519356 1321.2678512615385 523.2060475519356L1321.2678512615385 523.2060475519356ZM1326.5953966122515 514.4747926715995Q1332.5444889205487 514.4747926715995 1338.3159963838216 511.6038376770483Q1344.0579063729238 508.7328826824971 1350.8949229063396 502.13264594244646L1350.8949229063396 502.13264594244646L1350.8949229063396 475.2581393955137L1333.8467777840565 476.76761057821585Q1323.8132340402126 477.6259373291642 1318.07132405111 483.0422751023896Q1312.299816587837 488.4882103497857 1312.299816587837 497.01228291092735L1312.299816587837 497.01228291092735Q1312.299816587837 514.4747926715995 1326.5953966122515 514.4747926715995L1326.5953966122515 514.4747926715995ZM1421.4257038549526 523.2060475519356Q1408.1956329006807 523.2060475519356 1400.973849203047 516.8129931310793Q1393.7224680312424 510.4199387102231 1393.7224680312424 498.9361187320183L1393.7224680312424 498.9361187320183Q1393.7224680312424 485.0845008201631 1403.9335966201102 477.0931827940928Q1414.1743226831481 469.1018647680225 1433.5606682649113 467.79957590451477L1433.5606682649113 467.79957590451477L1451.0527754997543 466.52688451517764L1451.0527754997543 449.2715570736999Q1451.0527754997543 438.61646637227284 1446.5539594258184 433.7032856599481Q1442.0847408260533 428.81970242179403 1432.0807945563797 428.81970242179403L1432.0807945563797 428.81970242179403Q1423.5567219952381 428.81970242179403 1418.9691134987902 431.3650852004683Q1414.3815050023427 433.94006545331314 1414.3815050023427 438.4092840530784L1414.3815050023427 438.4092840530784Q1414.3815050023427 443.9440117229863 1420.7745594231988 446.2822121824662L1420.7745594231988 446.2822121824662Q1420.7745594231988 451.1953928947909 1417.6964221094531 453.8591655701477Q1414.5886873215372 456.52293824550446 1408.6395950132405 456.52293824550446L1408.6395950132405 456.52293824550446Q1403.1048673433324 456.52293824550446 1399.6715603395392 453.1192287158819Q1396.2678508099166 449.6859217120887 1396.2678508099166 444.15119404218075L1396.2678508099166 444.15119404218075Q1396.2678508099166 433.28892102155925 1405.9758223378835 426.7774767040205Q1415.6541963916798 420.29562986065235 1432.0807945563797 420.29562986065235L1432.0807945563797 420.29562986065235Q1449.543304317052 420.29562986065235 1459.3400682675306 427.9613756708457Q1469.16642969218 435.6271214810391 1469.16642969218 449.2715570736999L1469.16642969218 449.2715570736999L1469.16642969218 508.7328826824971Q1471.0606680391006 510.2127563910287 1475.3227043196716 511.9294098929252Q1479.5847406002422 513.6164659206512 1484.083556674178 514.4747926715995L1484.083556674178 514.4747926715995L1483.22522992323 521.726173843404L1453.805340597623 521.726173843404L1451.6743224573374 512.1365922121197Q1445.0740857172868 518.3224643137814 1437.8227045454823 520.7790546699439Q1430.5713233736778 523.2060475519356 1421.4257038549526 523.2060475519356L1421.4257038549526 523.2060475519356ZM1426.7532492056662 514.4747926715995Q1432.7023415139633 514.4747926715995 1438.4738489772362 511.6038376770483Q1444.2157589663384 508.7328826824971 1451.0527754997543 502.13264594244646L1451.0527754997543 502.13264594244646L1451.0527754997543 475.2581393955137L1434.0046303774707 476.76761057821585Q1423.9710866336268 477.6259373291642 1418.2291766445246 483.0422751023896Q1412.4576691812517 488.4882103497857 1412.4576691812517 497.01228291092735L1412.4576691812517 497.01228291092735Q1412.4576691812517 514.4747926715995 1426.7532492056662 514.4747926715995L1426.7532492056662 514.4747926715995ZM1495.5673766523828 514.0604280332107Q1500.6877396839018 513.2021012822624 1503.6770845751357 512.1365922121197Q1506.6664294663697 511.07108314197694 1509.6557743576031 508.52570036330275L1509.6557743576031 508.52570036330275L1509.6557743576031 447.79168336516835Q1509.6557743576031 439.88915776160997 1506.4592471471751 437.01820276705877Q1503.262719936747 434.14724777250757 1494.738647375605 433.7032856599481L1494.738647375605 433.7032856599481L1495.3601943331887 427.5470110324569Q1503.0259401433818 426.03753984975475 1514.7465399149514 422.4266480009378L1514.7465399149514 422.4266480009378Q1516.0488287784592 421.9826858883783 1521.5835564483673 420.29562986065235L1521.5835564483673 420.29562986065235L1525.4016306163785 422.2194656817434L1526.9111017990808 433.28892102155925Q1530.521993647898 429.23406706018284 1537.0334379654364 424.7648484604176Q1543.5152848088046 420.29562986065235 1552.8976841208946 420.29562986065235L1552.8976841208946 420.29562986065235Q1572.520809496023 420.29562986065235 1581.0448820571646 433.4961033407537L1581.0448820571646 433.4961033407537Q1587.6451187972152 427.5470110324569 1594.4525378564604 423.9065217094693Q1601.2895543898758 420.29562986065235 1609.3696648384584 420.29562986065235L1609.3696648384584 420.29562986065235Q1623.872427182067 420.29562986065235 1633.1364365974746 428.0797655675282Q1642.4004460128822 435.8343038002335 1642.4004460128822 452.26090196493357L1642.4004460128822 452.26090196493357L1642.4004460128822 508.52570036330275Q1644.5314641531677 510.2127563910287 1648.7047080112266 511.9294098929252Q1652.8483543951147 513.6164659206512 1657.3175729948798 514.4747926715995L1657.3175729948798 514.4747926715995L1656.4592462439318 521.726173843404L1609.8136269510178 521.726173843404L1610.2279915894064 514.4747926715995Q1618.3376995121594 513.2021012822624 1624.286791820456 508.52570036330275L1624.286791820456 508.52570036330275L1624.286791820456 451.60975753317973Q1624.286791820456 440.74748451255823 1620.143145436568 435.6271214810391Q1615.969901578509 430.50675844951996 1607.445829017367 430.50675844951996L1607.445829017367 430.50675844951996Q1600.6384099581223 430.50675844951996 1594.6597201756545 434.7687947300908Q1588.7106278673577 439.03083101066164 1585.7212829761243 444.80233847393464L1585.7212829761243 444.80233847393464L1585.7212829761243 508.52570036330275Q1587.6451187972152 510.2127563910287 1591.9071550777858 511.9294098929252Q1596.1691913583568 513.6164659206512 1600.6384099581223 514.4747926715995L1600.6384099581223 514.4747926715995L1599.780083207174 521.726173843404L1552.8976841208946 521.726173843404L1553.5488285526485 514.4747926715995Q1561.6289390012307 513.2021012822624 1567.6076287836981 508.52570036330275L1567.6076287836981 508.52570036330275L1567.6076287836981 451.60975753317973Q1567.6076287836981 440.74748451255823 1563.46398239981 435.6271214810391Q1559.2907385417507 430.50675844951996 1550.766665980609 430.50675844951996L1550.766665980609 430.50675844951996Q1543.3081024896105 430.50675844951996 1536.7078657495595 435.74551137772164Q1530.1076290095089 440.95466683175266 1527.9766108692238 447.14053893341446L1527.9766108692238 447.14053893341446L1527.9766108692238 508.52570036330275Q1532.8601941073775 512.343774531314 1542.686555532027 514.4747926715995L1542.686555532027 514.4747926715995L1541.828228781079 521.726173843404L1494.738647375605 521.726173843404L1495.5673766523828 514.0604280332107ZM1694.817572769069 523.2060475519356Q1681.617099288968 523.2060475519356 1674.3657181171634 516.8129931310793Q1667.114336945359 510.4199387102231 1667.114336945359 498.9361187320183L1667.114336945359 498.9361187320183Q1667.114336945359 485.0845008201631 1677.3550630083969 477.0931827940928Q1687.5957890714353 469.1018647680225 1706.9821346531985 467.79957590451477L1706.9821346531985 467.79957590451477L1724.4446444138707 466.52688451517764L1724.4446444138707 449.2715570736999Q1724.4446444138707 438.61646637227284 1719.9754258141052 433.7032856599481Q1715.50620721434 428.81970242179403 1705.4726634704962 428.81970242179403L1705.4726634704962 428.81970242179403Q1696.9485909093546 428.81970242179403 1692.3905798870778 431.3650852004683Q1687.8029713906299 433.94006545331314 1687.8029713906299 438.4092840530784L1687.8029713906299 438.4092840530784Q1687.8029713906299 443.9440117229863 1694.196025811486 446.2822121824662L1694.196025811486 446.2822121824662Q1694.196025811486 451.1953928947909 1691.08829102357 453.8591655701477Q1688.010153709824 456.52293824550446 1682.031463927357 456.52293824550446L1682.031463927357 456.52293824550446Q1676.496736257449 456.52293824550446 1673.0930267278263 453.1192287158819Q1669.6893171982038 449.6859217120887 1669.6893171982038 444.15119404218075L1669.6893171982038 444.15119404218075Q1669.6893171982038 433.28892102155925 1679.367691252 426.7774767040205Q1689.075662779967 420.29562986065235 1705.4726634704962 420.29562986065235L1705.4726634704962 420.29562986065235Q1722.964770705339 420.29562986065235 1732.7615346558177 427.9613756708457Q1742.5582986062964 435.6271214810391 1742.5582986062964 449.2715570736999L1742.5582986062964 449.2715570736999L1742.5582986062964 508.7328826824971Q1744.4821344273878 510.2127563910287 1748.7441707079583 511.9294098929252Q1753.0062069885294 513.6164659206512 1757.4754255882945 514.4747926715995L1757.4754255882945 514.4747926715995L1756.6170988373465 521.726173843404L1727.2268069859097 521.726173843404L1725.0957888456242 512.1365922121197Q1718.495552105574 518.3224643137814 1711.2441709337695 520.7790546699439Q1703.9927897619646 523.2060475519356 1694.817572769069 523.2060475519356L1694.817572769069 523.2060475519356ZM1700.1451181197826 514.4747926715995Q1706.12380790225 514.4747926715995 1711.8657178913527 511.6038376770483Q1717.6372253546256 508.7328826824971 1724.4446444138707 502.13264594244646L1724.4446444138707 502.13264594244646L1724.4446444138707 475.2581393955137L1707.3964992915871 476.76761057821585Q1697.392553021914 477.6259373291642 1691.621045558641 483.0422751023896Q1685.879135569539 488.4882103497857 1685.879135569539 497.01228291092735L1685.879135569539 497.01228291092735Q1685.879135569539 514.4747926715995 1700.1451181197826 514.4747926715995L1700.1451181197826 514.4747926715995ZM1768.1305162897215 513.8532457140163Q1773.0436970020464 513.2021012822624 1776.03304189328 512.1365922121197Q1778.9927893103431 511.07108314197694 1782.1893165207712 508.52570036330275L1782.1893165207712 508.52570036330275L1782.1893165207712 400.90928427888923Q1782.1893165207712 393.0067586753308 1778.9927893103431 390.1358036807796Q1775.796262099915 387.26484868622845 1767.2721895387735 386.820886573669L1767.2721895387735 386.820886573669L1767.9233339705274 380.4278321528127Q1776.2402242124745 379.1551407634756 1785.2970513086875 376.4913680881188Q1794.3538784049006 373.82759541276204 1796.2777142259915 373.2060484551788L1796.2777142259915 373.2060484551788L1800.3029707131973 375.3370665954642L1800.3029707131973 508.52570036330275Q1805.6305160639108 512.5509568505086 1815.2200976951954 514.267610352405L1815.2200976951954 514.267610352405L1814.3913684184176 521.726173843404L1767.2721895387735 521.726173843404L1768.1305162897215 513.8532457140163Z " fill="#7a2a2a" transform="matrix(0.4820351675409569,0,0,0.4820351675409569,0,83.94891121444454)"/></g></svg>